<svg width="1310.1" height="115.502" viewBox="0 0 1310.1 115.502" xmlns="http://www.w3.org/2000/svg"><g id="svgGroup" stroke-linecap="round" fill-rule="evenodd" font-size="9pt" stroke="#000" stroke-width="0.25mm" fill="#000" style="stroke:#000;stroke-width:0.25mm;fill:#000"><path d="M 491.25 6.9 L 491.25 76.2 A 58.455 58.455 0 0 1 490.543 85.559 Q 489.366 92.813 486.225 98.25 Q 481.2 106.95 472.35 111.225 A 42.179 42.179 0 0 1 460.506 114.848 A 55.854 55.854 0 0 1 451.8 115.5 A 55.209 55.209 0 0 1 440.251 114.366 Q 429.773 112.124 423 105.45 A 31.994 31.994 0 0 1 414.967 91.869 Q 413.41 86.852 412.971 80.797 A 67.881 67.881 0 0 1 412.8 75.9 L 412.8 6.9 L 416.7 6.9 L 416.7 75.6 A 55.895 55.895 0 0 0 417.59 85.919 Q 419.565 96.418 425.925 102.675 A 30.109 30.109 0 0 0 439.336 110.194 Q 444.994 111.75 451.95 111.75 A 50.085 50.085 0 0 0 461.268 110.923 A 37.31 37.31 0 0 0 470.55 107.925 Q 478.5 104.1 482.925 96.45 A 31.249 31.249 0 0 0 486.312 87.564 Q 487.155 83.792 487.314 79.44 A 56.174 56.174 0 0 0 487.35 77.4 L 487.35 6.9 L 491.25 6.9 Z M 0 111.15 L 0 106.8 A 90.761 90.761 0 0 0 7.939 109.161 A 110.969 110.969 0 0 0 13.125 110.325 A 69.792 69.792 0 0 0 20.502 111.371 Q 24.16 111.703 28.229 111.744 A 115.015 115.015 0 0 0 29.4 111.75 A 48.593 48.593 0 0 0 39.051 110.825 A 40.801 40.801 0 0 0 45.075 109.125 A 27.103 27.103 0 0 0 52.643 104.935 A 24.275 24.275 0 0 0 56.55 101.025 Q 60.9 95.55 60.9 86.85 Q 60.9 80.551 58.361 76.315 A 14.762 14.762 0 0 0 57.3 74.775 Q 53.858 70.401 47.606 67.398 A 39.996 39.996 0 0 0 47.025 67.125 A 101.184 101.184 0 0 0 40.682 64.477 Q 37.381 63.222 33.614 62.006 A 182.243 182.243 0 0 0 31.05 61.2 Q 24.6 59.1 19.125 56.85 A 44.574 44.574 0 0 1 13.417 54.034 A 35.966 35.966 0 0 1 9.6 51.45 Q 5.55 48.3 3.375 43.725 Q 1.489 39.758 1.238 34.155 A 39.293 39.293 0 0 1 1.2 32.4 A 29.201 29.201 0 0 1 1.984 25.461 A 21.563 21.563 0 0 1 5.775 17.4 A 26.942 26.942 0 0 1 15.724 9.418 A 33.165 33.165 0 0 1 18.075 8.4 A 44.238 44.238 0 0 1 29.512 5.693 A 54.826 54.826 0 0 1 35.25 5.4 Q 42.3 5.4 48.975 6.675 A 58.044 58.044 0 0 1 61.012 10.403 A 64.835 64.835 0 0 1 62.25 10.95 L 60.6 14.4 A 65.478 65.478 0 0 0 53.004 11.618 A 52.235 52.235 0 0 0 47.325 10.275 A 72.701 72.701 0 0 0 37.213 9.19 A 65.166 65.166 0 0 0 34.95 9.15 A 46.143 46.143 0 0 0 25.144 10.159 A 39.763 39.763 0 0 0 20.25 11.55 Q 13.5 13.95 9.375 18.975 A 17.56 17.56 0 0 0 5.879 26.241 Q 5.25 28.936 5.25 32.1 Q 5.25 40.2 9 45 A 23.963 23.963 0 0 0 15.747 50.854 A 30.352 30.352 0 0 0 19.125 52.575 A 129.489 129.489 0 0 0 27.368 55.818 A 160.273 160.273 0 0 0 33.15 57.75 A 158.849 158.849 0 0 1 41.076 60.447 Q 44.969 61.893 48.345 63.417 A 92.66 92.66 0 0 1 49.875 64.125 A 33.761 33.761 0 0 1 55.863 67.718 A 25.779 25.779 0 0 1 60.975 72.825 Q 64.95 78.15 64.95 87 Q 64.95 96.6 60.075 102.975 A 28.173 28.173 0 0 1 49.032 111.598 A 34.476 34.476 0 0 1 47.025 112.425 A 48.367 48.367 0 0 1 34.023 115.296 A 58.217 58.217 0 0 1 29.1 115.5 A 122.152 122.152 0 0 1 24.168 115.405 Q 21.481 115.296 19.112 115.063 A 66.786 66.786 0 0 1 17.025 114.825 Q 11.85 114.15 7.725 113.175 A 165.941 165.941 0 0 1 2.774 111.927 A 137.964 137.964 0 0 1 0 111.15 Z M 194.55 111.15 L 194.55 106.8 A 90.761 90.761 0 0 0 202.489 109.161 A 110.969 110.969 0 0 0 207.675 110.325 A 69.792 69.792 0 0 0 215.052 111.371 Q 218.71 111.703 222.779 111.744 A 115.015 115.015 0 0 0 223.95 111.75 A 48.593 48.593 0 0 0 233.601 110.825 A 40.801 40.801 0 0 0 239.625 109.125 A 27.103 27.103 0 0 0 247.193 104.935 A 24.275 24.275 0 0 0 251.1 101.025 Q 255.45 95.55 255.45 86.85 Q 255.45 80.551 252.911 76.315 A 14.762 14.762 0 0 0 251.85 74.775 Q 248.408 70.401 242.156 67.398 A 39.996 39.996 0 0 0 241.575 67.125 A 101.184 101.184 0 0 0 235.232 64.477 Q 231.931 63.222 228.164 62.006 A 182.243 182.243 0 0 0 225.6 61.2 Q 219.15 59.1 213.675 56.85 A 44.574 44.574 0 0 1 207.967 54.034 A 35.966 35.966 0 0 1 204.15 51.45 Q 200.1 48.3 197.925 43.725 Q 196.039 39.758 195.788 34.155 A 39.293 39.293 0 0 1 195.75 32.4 A 29.201 29.201 0 0 1 196.534 25.461 A 21.563 21.563 0 0 1 200.325 17.4 A 26.942 26.942 0 0 1 210.274 9.418 A 33.165 33.165 0 0 1 212.625 8.4 A 44.238 44.238 0 0 1 224.062 5.693 A 54.826 54.826 0 0 1 229.8 5.4 Q 236.85 5.4 243.525 6.675 A 58.044 58.044 0 0 1 255.562 10.403 A 64.835 64.835 0 0 1 256.8 10.95 L 255.15 14.4 A 65.478 65.478 0 0 0 247.554 11.618 A 52.235 52.235 0 0 0 241.875 10.275 A 72.701 72.701 0 0 0 231.763 9.19 A 65.166 65.166 0 0 0 229.5 9.15 A 46.143 46.143 0 0 0 219.694 10.159 A 39.763 39.763 0 0 0 214.8 11.55 Q 208.05 13.95 203.925 18.975 A 17.56 17.56 0 0 0 200.429 26.241 Q 199.8 28.936 199.8 32.1 Q 199.8 40.2 203.55 45 A 23.963 23.963 0 0 0 210.297 50.854 A 30.352 30.352 0 0 0 213.675 52.575 A 129.489 129.489 0 0 0 221.918 55.818 A 160.273 160.273 0 0 0 227.7 57.75 A 158.849 158.849 0 0 1 235.626 60.447 Q 239.519 61.893 242.895 63.417 A 92.66 92.66 0 0 1 244.425 64.125 A 33.761 33.761 0 0 1 250.413 67.718 A 25.779 25.779 0 0 1 255.525 72.825 Q 259.5 78.15 259.5 87 Q 259.5 96.6 254.625 102.975 A 28.173 28.173 0 0 1 243.582 111.598 A 34.476 34.476 0 0 1 241.575 112.425 A 48.367 48.367 0 0 1 228.573 115.296 A 58.217 58.217 0 0 1 223.65 115.5 A 122.152 122.152 0 0 1 218.718 115.405 Q 216.031 115.296 213.662 115.063 A 66.786 66.786 0 0 1 211.575 114.825 Q 206.4 114.15 202.275 113.175 A 165.941 165.941 0 0 1 197.324 111.927 A 137.964 137.964 0 0 1 194.55 111.15 Z M 1124.55 0 L 1124.55 56.25 L 1124.55 69.9 Q 1124.55 76.35 1124.4 83.55 L 1124.25 83.55 A 150.542 150.542 0 0 0 1125.526 82.151 Q 1126.027 81.594 1126.477 81.081 A 83.591 83.591 0 0 0 1127.325 80.1 Q 1128.6 78.6 1129.95 77.1 Q 1131.3 75.6 1132.95 73.8 L 1167.9 34.8 L 1173 34.8 L 1142.25 68.85 L 1176 114 L 1171.35 114 L 1139.55 71.55 L 1124.55 88.2 L 1124.55 114 L 1120.65 114 L 1120.65 0 L 1124.55 0 Z M 717.45 6.9 L 750.9 68.85 L 784.2 6.9 L 788.7 6.9 L 753 72.75 L 753 114 L 749.1 114 L 749.1 73.35 L 712.95 6.9 L 717.45 6.9 Z M 867.45 10.65 L 867.45 114 L 863.55 114 L 863.55 10.65 L 828 10.65 L 828 6.9 L 903.15 6.9 L 903.15 10.65 L 867.45 10.65 Z M 1023.9 61.5 L 1023.9 114 L 1020.6 114 L 1020 98.55 L 1019.7 98.55 A 31.401 31.401 0 0 1 1014.873 105.903 A 36.016 36.016 0 0 1 1013.925 106.95 A 24.974 24.974 0 0 1 1007.714 111.699 A 31.026 31.026 0 0 1 1004.625 113.175 Q 999.758 115.187 993.038 115.458 A 53.055 53.055 0 0 1 990.9 115.5 Q 982.95 115.5 977.625 112.875 A 20.03 20.03 0 0 1 972.708 109.514 A 17.24 17.24 0 0 1 969.6 105.6 Q 966.9 100.95 966.9 94.65 A 22.125 22.125 0 0 1 968.274 86.671 Q 970.383 81.17 975.733 77.594 A 25.351 25.351 0 0 1 976.875 76.875 A 41.197 41.197 0 0 1 985.443 73.117 Q 989.842 71.716 995.144 70.886 A 98.59 98.59 0 0 1 1004.55 69.9 L 1020 69 L 1020 62.55 A 56.478 56.478 0 0 0 1019.619 55.734 Q 1018.738 48.515 1015.823 44.319 A 14.568 14.568 0 0 0 1014.9 43.125 A 16.036 16.036 0 0 0 1007.262 38.274 Q 1003.771 37.2 999.3 37.2 Q 993.3 37.2 987.675 38.55 Q 982.226 39.858 976.002 42.996 A 76.369 76.369 0 0 0 975.6 43.2 L 974.25 39.3 Q 980.25 36.6 986.475 35.025 Q 992.7 33.45 999.3 33.45 A 36.003 36.003 0 0 1 1006.387 34.102 Q 1010.484 34.925 1013.623 36.789 A 18.242 18.242 0 0 1 1017.75 40.125 A 19.905 19.905 0 0 1 1021.674 46.718 Q 1023.9 52.657 1023.9 61.5 Z M 1247.1 70.35 L 1247.1 74.1 L 1188.15 74.1 A 79.529 79.529 0 0 0 1188.147 74.757 Q 1188.147 86.985 1191.956 95.335 A 29.559 29.559 0 0 0 1196.1 102 A 26.144 26.144 0 0 0 1211.124 110.891 A 39.98 39.98 0 0 0 1219.65 111.75 Q 1226.85 111.75 1232.025 110.7 A 40.547 40.547 0 0 0 1236.149 109.617 Q 1239.788 108.469 1244.1 106.5 L 1244.1 110.55 A 56.212 56.212 0 0 1 1233.347 114.145 A 52.216 52.216 0 0 1 1232.625 114.3 Q 1226.85 115.5 1219.65 115.5 A 48.326 48.326 0 0 1 1211.04 114.777 Q 1204.278 113.552 1199.325 110.25 Q 1191.45 105 1187.775 95.85 A 50.437 50.437 0 0 1 1184.617 83.475 A 64.859 64.859 0 0 1 1184.1 75.15 A 67.403 67.403 0 0 1 1184.1 74.974 Q 1184.129 63.826 1187.85 54.375 A 36.383 36.383 0 0 1 1194.2 43.738 A 33.356 33.356 0 0 1 1199.175 39.075 A 27.537 27.537 0 0 1 1210.512 34.046 A 38.743 38.743 0 0 1 1218.3 33.3 Q 1228.5 33.3 1234.8 38.25 A 27.968 27.968 0 0 1 1242.859 48.522 A 34.629 34.629 0 0 1 1244.1 51.525 A 49.813 49.813 0 0 1 1246.605 62.178 A 65.002 65.002 0 0 1 1247.1 70.35 Z M 322.05 6.9 L 350.7 6.9 Q 370.35 6.9 378.9 13.35 Q 387.45 19.8 387.45 32.7 Q 387.45 38.7 385.05 43.95 Q 382.65 49.2 377.925 52.725 A 24.311 24.311 0 0 1 371.169 56.223 A 32.213 32.213 0 0 1 366.3 57.45 L 366.3 57.75 Q 375.15 59.1 380.4 62.625 A 21.414 21.414 0 0 1 385.329 67.125 A 18.815 18.815 0 0 1 387.9 71.475 A 28.282 28.282 0 0 1 389.859 78.882 A 36.3 36.3 0 0 1 390.15 83.55 Q 390.15 92.513 386.833 98.662 A 22.152 22.152 0 0 1 385.2 101.25 A 26.985 26.985 0 0 1 373.74 110.185 A 33.579 33.579 0 0 1 371.625 111 A 52.739 52.739 0 0 1 361.186 113.426 A 69.758 69.758 0 0 1 352.05 114 L 322.05 114 L 322.05 6.9 Z M 543.9 114 L 520.8 114 L 520.8 6.9 L 547.35 6.9 A 85.957 85.957 0 0 1 559.745 7.742 Q 566.216 8.686 571.6 10.69 A 44.521 44.521 0 0 1 576.6 12.9 Q 588.15 18.9 593.85 30.6 A 52.998 52.998 0 0 1 598.035 43.201 Q 599.55 50.583 599.55 59.4 A 88.306 88.306 0 0 1 598.623 72.57 Q 597.584 79.453 595.379 85.213 A 48.269 48.269 0 0 1 593.475 89.55 Q 587.4 101.7 575.025 107.85 Q 562.65 114 543.9 114 Z M 647.7 114 L 624.6 114 L 624.6 6.9 L 651.15 6.9 A 85.957 85.957 0 0 1 663.545 7.742 Q 670.016 8.686 675.4 10.69 A 44.521 44.521 0 0 1 680.4 12.9 Q 691.95 18.9 697.65 30.6 A 52.998 52.998 0 0 1 701.835 43.201 Q 703.35 50.583 703.35 59.4 A 88.306 88.306 0 0 1 702.423 72.57 Q 701.384 79.453 699.179 85.213 A 48.269 48.269 0 0 1 697.275 89.55 Q 691.2 101.7 678.825 107.85 Q 666.45 114 647.7 114 Z M 175.625 73.304 A 87.659 87.659 0 0 0 176.55 60.3 A 107.542 107.542 0 0 0 176.501 57.033 Q 176.289 50.054 175.157 43.943 A 60.497 60.497 0 0 0 171.15 30.6 A 50.164 50.164 0 0 0 169.247 26.72 A 40.055 40.055 0 0 0 155.475 11.775 A 40.531 40.531 0 0 0 142.065 6.411 A 56.175 56.175 0 0 0 130.35 5.25 Q 115.05 5.25 104.325 12.225 A 42.885 42.885 0 0 0 97.844 17.384 A 45.345 45.345 0 0 0 88.05 31.575 A 60.992 60.992 0 0 0 83.802 45.354 A 80.299 80.299 0 0 0 82.5 60.15 A 92.099 92.099 0 0 0 82.911 68.978 A 73.896 73.896 0 0 0 85.425 82.425 A 57.814 57.814 0 0 0 86.961 87.023 A 48.176 48.176 0 0 0 94.275 99.975 Q 100.2 107.4 108.975 111.45 A 42.431 42.431 0 0 0 119.164 114.618 A 57.143 57.143 0 0 0 129.45 115.5 A 59.062 59.062 0 0 0 139.245 114.725 A 43.373 43.373 0 0 0 150.15 111.45 Q 159 107.4 164.85 99.975 A 46.733 46.733 0 0 0 168.826 94.037 A 54.044 54.044 0 0 0 173.625 82.5 A 70.073 70.073 0 0 0 175.625 73.304 Z M 1102.65 36.9 L 1101.9 40.65 A 36.625 36.625 0 0 0 1095.783 38.41 A 31.648 31.648 0 0 0 1092.975 37.8 Q 1088.55 37.05 1084.2 37.05 A 40.784 40.784 0 0 0 1075.028 38.036 A 31.225 31.225 0 0 0 1065.6 41.85 Q 1057.8 46.65 1053.525 55.2 A 40.112 40.112 0 0 0 1049.755 67.52 A 51.493 51.493 0 0 0 1049.25 74.85 A 53.452 53.452 0 0 0 1050.436 86.31 A 44.863 44.863 0 0 0 1052.625 93.45 Q 1056 101.85 1063.125 106.8 Q 1069.495 111.226 1079.282 111.694 A 49.484 49.484 0 0 0 1081.65 111.75 Q 1087.05 111.75 1092.375 110.7 A 55.866 55.866 0 0 0 1098.355 109.189 A 45.131 45.131 0 0 0 1102.05 107.85 L 1102.05 111.6 A 47.821 47.821 0 0 1 1098.49 112.852 Q 1096.629 113.431 1094.499 113.956 A 87.585 87.585 0 0 1 1093.05 114.3 A 47.446 47.446 0 0 1 1086.136 115.331 A 58.124 58.124 0 0 1 1081.65 115.5 A 49.008 49.008 0 0 1 1072.833 114.751 Q 1066.013 113.503 1060.95 110.175 Q 1052.85 104.85 1049.025 95.625 A 49.869 49.869 0 0 1 1045.652 82.516 A 63.13 63.13 0 0 1 1045.2 74.85 A 53.343 53.343 0 0 1 1046.381 63.394 A 42.531 42.531 0 0 1 1049.925 53.325 Q 1054.65 43.95 1063.35 38.625 Q 1072.05 33.3 1084.2 33.3 A 56.099 56.099 0 0 1 1089.662 33.554 A 42.852 42.852 0 0 1 1094.025 34.2 Q 1098.45 35.1 1102.65 36.9 Z M 86.55 60.15 A 82.465 82.465 0 0 0 87.676 74.098 A 62.496 62.496 0 0 0 91.2 86.775 A 41.483 41.483 0 0 0 98.825 99.239 A 38.193 38.193 0 0 0 105.45 105.075 A 36.091 36.091 0 0 0 118.497 110.627 Q 123.632 111.75 129.6 111.75 Q 144.3 111.75 153.825 105.225 A 37.796 37.796 0 0 0 166.945 89.384 A 46.569 46.569 0 0 0 167.925 87.075 A 64.124 64.124 0 0 0 171.624 72.882 A 86.472 86.472 0 0 0 172.5 60.3 A 87.793 87.793 0 0 0 171.349 45.605 Q 169.999 37.669 167.068 31.327 A 41.666 41.666 0 0 0 161.55 22.425 A 35.615 35.615 0 0 0 138.8 9.648 A 52.82 52.82 0 0 0 130.35 9 A 53.991 53.991 0 0 0 119.422 10.048 Q 112.304 11.518 106.734 15.053 A 33.731 33.731 0 0 0 105.9 15.6 A 39.499 39.499 0 0 0 91.811 32.678 A 47.645 47.645 0 0 0 91.35 33.75 A 61.519 61.519 0 0 0 87.342 48.629 A 80.63 80.63 0 0 0 86.55 60.15 Z M 545.85 10.65 L 524.7 10.65 L 524.7 110.25 L 544.35 110.25 A 84.286 84.286 0 0 0 558.512 109.14 Q 573.913 106.509 582.825 97.65 A 39.317 39.317 0 0 0 592.231 82.122 Q 595.5 72.499 595.5 59.55 A 81.292 81.292 0 0 0 594.71 47.895 Q 593.806 41.658 591.865 36.427 A 44.627 44.627 0 0 0 590.325 32.775 Q 585.15 21.9 574.2 16.275 A 46.083 46.083 0 0 0 563.599 12.48 Q 558.708 11.336 552.998 10.907 A 95.528 95.528 0 0 0 545.85 10.65 Z M 649.65 10.65 L 628.5 10.65 L 628.5 110.25 L 648.15 110.25 A 84.286 84.286 0 0 0 662.312 109.14 Q 677.713 106.509 686.625 97.65 A 39.317 39.317 0 0 0 696.031 82.122 Q 699.3 72.499 699.3 59.55 A 81.292 81.292 0 0 0 698.51 47.895 Q 697.606 41.658 695.665 36.427 A 44.627 44.627 0 0 0 694.125 32.775 Q 688.95 21.9 678 16.275 A 46.083 46.083 0 0 0 667.399 12.48 Q 662.508 11.336 656.798 10.907 A 95.528 95.528 0 0 0 649.65 10.65 Z M 957.3 35.25 L 956.4 38.85 A 56.888 56.888 0 0 0 953.312 38.125 A 44.504 44.504 0 0 0 951.075 37.725 A 30.054 30.054 0 0 0 948.903 37.482 Q 947.838 37.4 946.638 37.369 A 57.676 57.676 0 0 0 945.15 37.35 A 29.59 29.59 0 0 0 940.155 37.75 Q 936.952 38.299 934.35 39.6 Q 929.85 41.85 926.85 46.05 A 26.147 26.147 0 0 0 923.779 51.809 A 33.996 33.996 0 0 0 922.425 56.175 Q 921 62.1 921 69.45 L 921 114 L 917.1 114 L 917.1 34.8 L 920.7 34.8 L 921 49.95 L 921.3 49.95 Q 922.8 45.3 925.95 41.625 A 21.709 21.709 0 0 1 932.137 36.682 A 26.134 26.134 0 0 1 933.975 35.775 A 24.744 24.744 0 0 1 940.623 33.906 A 32.292 32.292 0 0 1 945.15 33.6 Q 948.75 33.6 951.675 34.05 A 48.694 48.694 0 0 1 957.216 35.227 A 45.056 45.056 0 0 1 957.3 35.25 Z M 1310.1 35.25 L 1309.2 38.85 A 56.888 56.888 0 0 0 1306.112 38.125 A 44.504 44.504 0 0 0 1303.875 37.725 A 30.054 30.054 0 0 0 1301.703 37.482 Q 1300.638 37.4 1299.438 37.369 A 57.676 57.676 0 0 0 1297.95 37.35 A 29.59 29.59 0 0 0 1292.955 37.75 Q 1289.752 38.299 1287.15 39.6 Q 1282.65 41.85 1279.65 46.05 A 26.147 26.147 0 0 0 1276.579 51.809 A 33.996 33.996 0 0 0 1275.225 56.175 Q 1273.8 62.1 1273.8 69.45 L 1273.8 114 L 1269.9 114 L 1269.9 34.8 L 1273.5 34.8 L 1273.8 49.95 L 1274.1 49.95 Q 1275.6 45.3 1278.75 41.625 A 21.709 21.709 0 0 1 1284.937 36.682 A 26.134 26.134 0 0 1 1286.775 35.775 A 24.744 24.744 0 0 1 1293.423 33.906 A 32.292 32.292 0 0 1 1297.95 33.6 Q 1301.55 33.6 1304.475 34.05 A 48.694 48.694 0 0 1 1310.016 35.227 A 45.056 45.056 0 0 1 1310.1 35.25 Z M 351.6 59.55 L 325.95 59.55 L 325.95 110.25 L 353.25 110.25 A 59.578 59.578 0 0 0 362.588 109.564 Q 367.561 108.773 371.602 107.072 A 28.51 28.51 0 0 0 377.325 103.875 A 20.352 20.352 0 0 0 385.133 92.045 Q 386.04 88.517 386.096 84.27 A 42.686 42.686 0 0 0 386.1 83.7 A 33.901 33.901 0 0 0 385.656 78.033 Q 384.746 72.677 381.975 69.15 Q 377.85 63.9 370.125 61.725 Q 362.4 59.55 351.6 59.55 Z M 325.95 55.8 L 352.05 55.8 A 70.184 70.184 0 0 0 360.347 55.343 Q 369.426 54.259 374.862 50.602 A 20.05 20.05 0 0 0 375.675 50.025 A 18.675 18.675 0 0 0 382.976 37.885 A 28.477 28.477 0 0 0 383.4 32.85 A 27.974 27.974 0 0 0 382.706 26.402 Q 381.062 19.464 375.525 15.825 A 24.883 24.883 0 0 0 369.353 12.993 Q 363.144 11.026 353.895 10.71 A 106.97 106.97 0 0 0 350.25 10.65 L 325.95 10.65 L 325.95 55.8 Z M 1188.3 70.35 L 1243.05 70.35 A 68.349 68.349 0 0 0 1243.058 69.315 Q 1243.058 64.974 1242.496 61.107 A 41.776 41.776 0 0 0 1240.5 52.95 A 28.083 28.083 0 0 0 1237.232 46.482 A 22.59 22.59 0 0 0 1232.25 41.25 A 20.278 20.278 0 0 0 1223.854 37.569 A 28.355 28.355 0 0 0 1218.3 37.05 A 30.547 30.547 0 0 0 1208.151 38.672 A 26.18 26.18 0 0 0 1197.675 45.525 Q 1189.65 54 1188.3 70.35 Z M 1020 72.75 L 1004.85 73.5 A 85.526 85.526 0 0 0 995.049 74.512 Q 986.379 75.952 980.325 79.2 Q 971.1 84.15 971.1 94.65 A 19.937 19.937 0 0 0 971.802 100.086 A 14.695 14.695 0 0 0 976.2 107.175 A 16.481 16.481 0 0 0 982.31 110.57 Q 984.806 111.363 987.826 111.623 A 35.845 35.845 0 0 0 990.9 111.75 Q 1001.039 111.75 1007.511 107.844 A 20.605 20.605 0 0 0 1012.875 103.2 Q 1019.85 94.65 1020 81 L 1020 72.75 Z" vector-effect="non-scaling-stroke"/></g></svg>